<svg
	version="1.1"
	xmlns="http://www.w3.org/2000/svg"
	xmlns:xlink="http://www.w3.org/1999/xlink"
	viewBox="-1 -1 102 102"
>
	<defs>
		<filter id="f1">
			<feTurbulence baseFrequency=".1" result="t1" />
			<feFlood x="5" y="5" width=".1" height=".1" />
			<feComposite width="10" height="10" />
			<feTile result="t2" />
			<feComposite in="t1" in2="t2" operator="in" />
			<feMorphology operator="dilate" radius="5" />
			<feOffset width="100" height=".1"/>
			<feTile result="t" />
			<feColorMatrix type="saturate" values="0" result="r" />
			<feDisplacementMap in="SourceGraphic" in2="r" scale="5" xChannelSelector="R" yChannelSelector="G" />
		</filter>
		<style>
			#target {
				animation: pulse 5s infinite;
			}
			
			@keyframes pulse {
				0% {transform: scale(1);}
				50% {transform: scale(2) ;}
			}
		</style>
	</defs>
	
	<g style="filter: url(#f1)">
		<rect x="0" y="0" width="100" height="100" fill="gray" />
		<g style="transform: translate(30px, 30px);">
			<g id="target">
				<circle cx="20" cy="20" r="20" />
				<circle cx="20" cy="20" r="15" fill="red" />
			</g>
		</g>
	</g>
	
	<g style="fill: black; stroke: none; font-size: 5em; opacity: .5;" transform="scale(.05)">
		<path d="M15,15 v70 h12.5 v-57.5 h22.5 a22.5,22.5 0 0,1 22.5,22.5 v5 l-5,-5 h-17.5 l35,35 v-35 a35,35 0 0,0 -35,-35 z" />
		<path d="M32.5,32.5 v25 l27.5,27.5 h17.5 l-32.5,-32.5 v-7.5 h21.75 a17.5,17.5 0 0,0 -17.5,-12.5 z" />
		<path d="M32.5,85 h20 l-20,-20 z" />
		<text x="100" y="50" dy="0.5em">Ро́ганов Сергей</text>
	</g>
</svg>
