<?xml version="1.0" encoding="utf-8"?>
<!-- © Roganov Sergey, Novosibirsk, 2016 -->
<svg version="1.1"
	 xmlns="http://www.w3.org/2000/svg"
	 xmlns:xlink="http://www.w3.org/1999/xlink"
	 width="500"
	 viewBox="-55 -5 110 110"
>
	<style type="text/css">
		<![CDATA[
			#main{
				fill: none;
				stroke: black;
				stroke-width: 1;
			}
		]]>
	</style>
	
	<g id="main">
		<path d="M0,100 h-50 l50,-100 l50,100 z" />
	</g>
	
	<script type="text/javascript">
		<![CDATA[
			var xmlns = "http://www.w3.org/2000/svg";
			var g = document.querySelector("#main");
			var p = document.createElementNS(xmlns, "path");
			var d = "";
			var w = 50;
			var h = 100;
			var n = 4;
			for(var i=1; i<=n; i++){
				d += "M-50,100";
				d += "L" + (w-i*w/n) + "," + (h-i*h/n);
				d += "M50,100";
				d += "L" + -(w-i*w/n) + "," + (h-i*h/n);
			}
			p.setAttribute("d", d);
			g.appendChild(p);
		]]>
	</script>
	<g style="fill: black; stroke: none; font-size: 5em; opacity: .5;" transform="scale(.05)">
		<path d="M15,15 v70 h12.5 v-57.5 h22.5 a22.5,22.5 0 0,1 22.5,22.5 v5 l-5,-5 h-17.5 l35,35 v-35 a35,35 0 0,0 -35,-35 z" />
		<path d="M32.5,32.5 v25 l27.5,27.5 h17.5 l-32.5,-32.5 v-7.5 h21.75 a17.5,17.5 0 0,0 -17.5,-12.5 z" />
		<path d="M32.5,85 h20 l-20,-20 z" />
		<text x="100" y="50" dy="0.5em">Ро́ганов Сергей</text>
	</g>
</svg>
