<svg
	xmlns="http://www.w3.org/2000/svg"
	xmlns:xlink="http://www.w3.org/1999/xlink"
	viewBox="-1 -1 102 102"
>
	<defs>
		<filter id="f1">
			<feTurbulence baseFrequency=".1,.000001" type="fractalNoise" result="r2" />
			<feComponentTransfer result="r1">
				<feFuncR type="discrete" tableValues="1 0 0 0"/>
				<feFuncG type="discrete" tableValues="0 1 0 0"/>
				<feFuncB type="discrete" tableValues="0 0 1 0"/>
				<feFuncA type="discrete" tableValues="1 1 1 0"/>
			</feComponentTransfer>
			<feColorMatrix type="saturate" values="0" result="r" />
			<!--<feMorphology operator="dilate" radius="1" />-->
			<feDisplacementMap in="SourceGraphic" in2="r" operator="in" scale="5" xChannelSelector="R" yChannelSelector="R" />
		</filter>
		<filter id="b1">
			<feFlood x="0" y="0" width="100" height="100" flood-color="blue" result="f" />
			<feTurbulence baseFrequency=".1,.000001" type="fractalNoise" />
			<feComponentTransfer result="r1">
				<feFuncR type="discrete" tableValues="0 .5 .5 0"/>
				<feFuncG type="discrete" tableValues=".5 0 .5 0"/>
				<feFuncB type="discrete" tableValues="0 .5 0 0"/>
				<feFuncA type="discrete" tableValues=".25 .5 1 0"/>
			</feComponentTransfer>
			<feColorMatrix type="saturate" values="0" result="r" />
			<feBlend in="f" in2="r" mode="darken" />
		</filter>
		<style>
			#g {
				filter: url(#f1);
			}
			
			#c {
				animation: move 5s infinite;
			}
			
			@keyframes move {
				0% {transform: translate(-20px, -20px);}
				25% {transform: translate(20px, -20px);}
				50% {transform: translate(20px, 20px);}
				75% {transform: translate(-20px, 20px);}
				100% {transform: translate(-20px, -20px);}
			}
		</style>
	</defs>
	
	<rect x="0" y="0" width="100" height="100" style="filter: url(#b1);" />
	<g id="g">
		<rect x="0" y="0" width="100" height="100" style="fill: none;" />
		<circle id="c" cx="50" cy="50" r="20" style="fill: rgba(0,0,0,.5); stroke: red;" />
		<rect x="20" y="40" width="50" height="40" style="fill: rgba(0,255,0,.5); stroke: blue;" />
	</g>
	<g style="fill: black; stroke: none; font-size: 5em; opacity: .5;" transform="scale(.05)">
		<path d="M15,15 v70 h12.5 v-57.5 h22.5 a22.5,22.5 0 0,1 22.5,22.5 v5 l-5,-5 h-17.5 l35,35 v-35 a35,35 0 0,0 -35,-35 z" />
		<path d="M32.5,32.5 v25 l27.5,27.5 h17.5 l-32.5,-32.5 v-7.5 h21.75 a17.5,17.5 0 0,0 -17.5,-12.5 z" />
		<path d="M32.5,85 h20 l-20,-20 z" />
		<text x="100" y="50" dy="0.5em">Ро́ганов Сергей</text>
	</g>
</svg>
