<svg
	xmlns="http://www.w3.org/2000/svg"
	xmlns:xlink="http://www.w3.org/1999/xlink"
	viewBox="-1 -1 102 102"
>
	<defs>
		<filter id="f1">
			<feTurbulence id="t" baseFrequency=".05,.00012" stitchTiles="stitch" width="60" />
			<feTile />
			<feOffset id="o" dx="0" dy="0" width="60" />
			<feTile />
			<feOffset id="o" dx="0" dy="0" result="r" />
			<feDisplacementMap in="SourceGraphic" in2="r" operator="in" scale="10" />
		</filter>
		<style>
			#g {
				filter: url(#f1);
			}
		</style>
	</defs>
	
	<!--<rect x="0" y="0" width="100" height="100" style="filter: url(#f1);" />-->
	
	<circle id="c" cx="40" cy="40" r="10" style="fill: rgba(0,0,255,.5); stroke: blue;" />
	<g id="g">
		<rect x="0" y="50" width="100" height="100" style="fill: none;" />
		<circle id="c" cx="50" cy="50" r="20" style="fill: rgba(255,0,0,.5); stroke: red;" />
		<rect x="20" y="40" width="50" height="40" style="fill: rgba(0,255,0,.5); stroke: green;" />
	</g>
	
	<script><![CDATA[
		window.addEventListener("load", function(){
			T = document.querySelector("#t");
			O = document.querySelector("#o");
			setInterval(f, 25);
		});
		
		function f(){
			this.dx = (this.dx-.25)%60 || 0;
			O.setAttribute("dx", this.dx);
		}
	]]></script>
	<g style="fill: black; stroke: none; font-size: 5em; opacity: .5;" transform="scale(.05)">
		<path d="M15,15 v70 h12.5 v-57.5 h22.5 a22.5,22.5 0 0,1 22.5,22.5 v5 l-5,-5 h-17.5 l35,35 v-35 a35,35 0 0,0 -35,-35 z" />
		<path d="M32.5,32.5 v25 l27.5,27.5 h17.5 l-32.5,-32.5 v-7.5 h21.75 a17.5,17.5 0 0,0 -17.5,-12.5 z" />
		<path d="M32.5,85 h20 l-20,-20 z" />
		<text x="100" y="50" dy="0.5em">Ро́ганов Сергей</text>
	</g>
</svg>
