<svg
	xmlns="http://www.w3.org/2000/svg"
	xmlns:xlink="http://www.w3.org/1999/xlink"
	viewBox="-1 -1 102 102"
>
	<defs>
		<filter id="water">
			<feTurbulence baseFrequency=".05,.00012" stitchTiles="stitch" width="60" />
			<feTile />
			<feOffset id="wave" dx="0" dy="0" width="60" />
			<feTile />
			<feOffset dx="0" dy="65.5" result="r" />
			<feDisplacementMap in="SourceGraphic" in2="r" operator="in" scale="10" />
			<feOffset dx="-5" dy="-5" result="o" />
			<feFlood x="0" y="0" width="100" height="100" result="f" />
			<feComposite in="o" in2="f" operator="in" />
		</filter>
		<style>
			#ball {
				stroke: red;
				fill: rgba(255, 0, 0, .5);
				animation: updown 25s infinite;
			}
			
			@keyframes updown {
				0% {transform: translate(0px, 0px);}
				50% {transform: translate(0px, 50px);}
			}
			
			#bath {
				stroke: none;
				fill: rgba(0, 0, 255, .5);
				filter: url(#water);
			}
			
			#border {
				stroke: gray;
				stroke-width: .25;
				fill: none;
			}
		</style>
	</defs>
	
	<g id="bath">
		<rect x="0" y="00" width="100" height="100" style="stroke: none; fill: none;" />
		<circle id="ball" cx="50" cy="25" r="20" />
		<rect x="-5" y="50" width="110" height="55" />
	</g>
	<rect id="border" x="0" y="0" width="100" height="100" />
	
	<script><![CDATA[
		window.addEventListener("load", function(){
			Wave = document.querySelector("#wave");
			setInterval(f, 25);
		});
		
		function f(){
			this.dx = (this.dx-.25)%60 || 0;
			Wave.setAttribute("dx", this.dx);
		}
	]]></script>
	<g style="fill: black; stroke: none; font-size: 5em; opacity: .5;" transform="scale(.05)">
		<path d="M15,15 v70 h12.5 v-57.5 h22.5 a22.5,22.5 0 0,1 22.5,22.5 v5 l-5,-5 h-17.5 l35,35 v-35 a35,35 0 0,0 -35,-35 z" />
		<path d="M32.5,32.5 v25 l27.5,27.5 h17.5 l-32.5,-32.5 v-7.5 h21.75 a17.5,17.5 0 0,0 -17.5,-12.5 z" />
		<path d="M32.5,85 h20 l-20,-20 z" />
		<text x="100" y="50" dy="0.5em">Ро́ганов Сергей</text>
	</g>
</svg>
